<svg xmlns="http://www.w3.org/2000/svg" enable-background="new 0 0 66 66" viewBox="0 0 66 66"><path fill="#ef4a51" d="M62.82 21.29c-.64-.11-1.16-.56-1.41-1.16-.01-.01-.01-.01-.01-.02-.25-.6-.2-1.28.17-1.81l.69-.98-2.17-2.17-.99.69c-.53.38-1.22.42-1.81.17-.01 0-.01-.01-.02-.01-.6-.25-1.06-.77-1.16-1.41l-.2-1.18h-3.07l-.2 1.18c-.11.64-.56 1.16-1.16 1.41-.01.01-.01.01-.02.01-.6.25-1.29.21-1.82-.17l-.98-.69-2.17 2.17.69.98c.38.53.42 1.22.17 1.81 0 .01-.01.02-.01.02-.25.6-.77 1.05-1.41 1.16l-1.18.2v3.07l1.18.2c.64.11 1.15.56 1.41 1.16 0 .01.01.01.01.02.25.6.21 1.28-.17 1.81l-.69.99 2.17 2.17.98-.69c.53-.38 1.22-.42 1.82-.17.01.01.01.01.02.01.6.25 1.06.76 1.16 1.41l.2 1.18h3.07l.2-1.18c.11-.64.56-1.16 1.16-1.41.01-.01.01-.01.02-.01.6-.25 1.28-.21 1.81.17l.99.69 2.17-2.17-.69-.99c-.38-.53-.42-1.22-.17-1.81 0-.01.01-.02.01-.02.25-.6.77-1.05 1.41-1.16l1.18-.2v-3.07L62.82 21.29zM54.37 27.2c-2.3 0-4.17-1.86-4.17-4.17s1.87-4.17 4.17-4.17c2.31 0 4.18 1.86 4.18 4.17S56.68 27.2 54.37 27.2zM41.58 7.22c0 2.88-8.86 5.22-19.8 5.22C10.86 12.45 2 10.11 2 7.22 2 4.34 10.86 2 21.78 2 32.72 2 41.58 4.34 41.58 7.22zM2 36.7c0 2.88 8.86 5.22 19.78 5.22 10.94 0 19.8-2.34 19.8-5.22v9.83c0 2.88-8.86 5.22-19.8 5.22C10.86 51.75 2 49.41 2 46.53V36.7z"/><path fill="#d94449" d="M2,26.87c0,2.88,8.86,5.22,19.78,5.22c10.94,0,19.8-2.34,19.8-5.22v9.83c0,2.88-8.86,5.22-19.8,5.22C10.86,41.92,2,39.58,2,36.7V26.87z"/><path fill="#ef4a51" d="M2,17.05c0,2.88,8.86,5.22,19.78,5.22c10.94,0,19.8-2.34,19.8-5.22v9.83c0,2.88-8.86,5.22-19.8,5.22C10.86,32.09,2,29.76,2,26.87V17.05z"/><path fill="#d94449" d="M2,7.22c0,2.88,8.86,5.22,19.78,5.22c10.94,0,19.8-2.34,19.8-5.22v9.83c0,2.88-8.86,5.22-19.8,5.22C10.86,22.27,2,19.93,2,17.05V7.22z"/><path fill="#fff" d="M41.58,34.04V7.22C41.58,4.34,32.72,2,21.79,2c-0.74,0-1.47,0.01-2.19,0.03v19.97c0,6.65,5.39,12.04,12.04,12.04H41.58z" opacity=".3"/><path fill="#fff" d="M41.43,31.67h0.15V7.22c0-2.75-8.09-5.01-18.35-5.21v0c0,2.32,1.88,4.2,4.2,4.2h9.81v21.26C37.23,29.79,39.11,31.67,41.43,31.67z" opacity=".3"/><path fill="none" d="M41.58,35.04v11.48c0,2.88-8.86,5.22-19.8,5.22C10.86,51.75,2,49.41,2,46.53V7.22c0,2.89,8.86,5.22,19.78,5.22c10.94,0,19.8-2.33,19.8-5.22v8.91"/><path fill="none" d="M41.58,46.53c0,2.88-8.86,5.22-19.8,5.22C10.86,51.75,2,49.41,2,46.53V7.22c0,2.88,8.86,5.22,19.78,5.22c10.94,0,19.8-2.34,19.8-5.22V46.53"/><path fill="#ffab03" d="M53.97,45.82c-1.03-0.18-1.86-0.9-2.25-1.86c-0.01-0.01-0.01-0.02-0.02-0.04c-0.39-0.96-0.32-2.05,0.28-2.9l1.11-1.57l-3.48-3.48l-1.58,1.11c-0.85,0.6-1.94,0.67-2.9,0.27c-0.01,0-0.02-0.01-0.03-0.01c-0.97-0.4-1.69-1.23-1.86-2.26l-0.32-1.89H38l-0.32,1.89c-0.17,1.03-0.9,1.86-1.86,2.25c-0.01,0.01-0.02,0.01-0.03,0.02c-0.97,0.39-2.06,0.33-2.91-0.27l-1.57-1.11l-3.48,3.48l1.11,1.57c0.6,0.85,0.67,1.94,0.27,2.9c0,0.02-0.01,0.03-0.01,0.04c-0.39,0.97-1.23,1.68-2.25,1.86l-1.89,0.32v4.91l1.89,0.32c1.02,0.18,1.85,0.9,2.25,1.86c0,0.01,0.01,0.02,0.01,0.04c0.4,0.96,0.33,2.05-0.27,2.9l-1.11,1.58l3.48,3.47l1.57-1.1c0.85-0.61,1.94-0.67,2.91-0.28c0.01,0.01,0.02,0.01,0.03,0.02c0.97,0.39,1.69,1.22,1.86,2.25L38,64h4.92l0.32-1.89c0.17-1.03,0.9-1.86,1.86-2.25c0.01-0.01,0.02-0.01,0.03-0.02c0.96-0.39,2.05-0.33,2.9,0.27l1.58,1.11l3.48-3.47l-1.11-1.58c-0.6-0.85-0.67-1.94-0.27-2.9c0-0.02,0.01-0.03,0.01-0.04c0.4-0.96,1.23-1.68,2.25-1.86l1.89-0.32v-4.91L53.97,45.82z M40.45,55.27c-3.68,0-6.67-2.98-6.67-6.67s2.99-6.67,6.67-6.67c3.69,0,6.68,2.98,6.68,6.67S44.14,55.27,40.45,55.27z"/></svg>